<svg width="55" height="43" viewBox="0 0 55 43" fill="none" xmlns="http://www.w3.org/2000/svg">
<g filter="url(#filter0_d_20_27)">
<path d="M40.2105 17.5197L39.1802 14.9585L37.3532 10.4167C35.7848 6.51836 32.0439 4 27.8208 4H16.1792C11.957 4 8.21517 6.51836 6.64675 10.4167L4.81983 14.9585L3.7895 17.5197C1.5785 18.3555 0 20.4664 0 22.9583V27.3333C0 28.8026 0.564667 30.1288 1.46667 31.1551V36.0833C1.46667 37.6939 2.78025 39 4.4 39H7.33333C8.95308 39 10.2667 37.6939 10.2667 36.0833V33.1667H33.7333V36.0833C33.7333 37.6939 35.0469 39 36.6667 39H39.6C41.2198 39 42.5333 37.6939 42.5333 36.0833V31.1551C43.4353 30.1297 44 28.8035 44 27.3333V22.9583C44 20.4664 42.4215 18.3555 40.2105 17.5197ZM12.0936 12.5832C12.7618 10.9225 14.3798 9.83333 16.1792 9.83333H27.8208C29.6202 9.83333 31.2382 10.9225 31.9064 12.5832L33.7333 17.125H10.2667L12.0936 12.5832ZM7.33333 27.3151C5.57333 27.3151 4.4 26.1521 4.4 24.4076C4.4 22.663 5.57333 21.5 7.33333 21.5C9.09333 21.5 11.7333 24.1168 11.7333 25.8613C11.7333 27.6059 9.09333 27.3151 7.33333 27.3151ZM36.6667 27.3151C34.9067 27.3151 32.2667 27.6059 32.2667 25.8613C32.2667 24.1168 34.9067 21.5 36.6667 21.5C38.4267 21.5 39.6 22.663 39.6 24.4076C39.6 26.1521 38.4267 27.3151 36.6667 27.3151Z" fill="#080D95"/>
</g>
<defs>
<filter id="filter0_d_20_27" x="0" y="0" width="55" height="43" filterUnits="userSpaceOnUse" color-interpolation-filters="sRGB">
<feFlood flood-opacity="0" result="BackgroundImageFix"/>
<feColorMatrix in="SourceAlpha" type="matrix" values="0 0 0 0 0 0 0 0 0 0 0 0 0 0 0 0 0 0 127 0" result="hardAlpha"/>
<feOffset dx="7"/>
<feGaussianBlur stdDeviation="2"/>
<feComposite in2="hardAlpha" operator="out"/>
<feColorMatrix type="matrix" values="0 0 0 0 0 0 0 0 0 0 0 0 0 0 0 0 0 0 0.25 0"/>
<feBlend mode="normal" in2="BackgroundImageFix" result="effect1_dropShadow_20_27"/>
<feBlend mode="normal" in="SourceGraphic" in2="effect1_dropShadow_20_27" result="shape"/>
</filter>
</defs>
</svg>
