<svg width="25" height="17" viewBox="0 0 25 17" fill="none" xmlns="http://www.w3.org/2000/svg">
<path d="M24.8489 7.86631C22.4952 3.27386 17.8355 0.166656 12.5 0.166656C7.16447 0.166656 2.50345 3.27603 0.151018 7.86674C0.0517306 8.06314 0 8.28014 0 8.50021C0 8.72028 0.0517306 8.93727 0.151018 9.13367C2.50475 13.7261 7.16447 16.8333 12.5 16.8333C17.8355 16.8333 22.4965 13.7239 24.8489 9.13324C24.9482 8.93683 25 8.71984 25 8.49977C25 8.2797 24.9482 8.06271 24.8489 7.86631ZM12.5 14.75C11.2638 14.75 10.0555 14.3834 9.02766 13.6967C7.99985 13.0099 7.19878 12.0338 6.72573 10.8918C6.25268 9.74972 6.12891 8.49306 6.37007 7.28068C6.61123 6.06829 7.20648 4.95465 8.08056 4.08057C8.95464 3.20649 10.0683 2.61124 11.2807 2.37008C12.493 2.12892 13.7497 2.2527 14.8917 2.72574C16.0338 3.19879 17.0099 3.99987 17.6967 5.02768C18.3834 6.05548 18.75 7.26386 18.75 8.49999C18.7504 9.32086 18.589 10.1338 18.275 10.8922C17.9611 11.6507 17.5007 12.3399 16.9203 12.9203C16.3398 13.5007 15.6507 13.9611 14.8922 14.2751C14.1338 14.589 13.3208 14.7504 12.5 14.75ZM12.5 4.33332C12.1281 4.33852 11.7586 4.39385 11.4015 4.49782C11.6958 4.89785 11.8371 5.39013 11.7996 5.88538C11.7621 6.38063 11.5484 6.84606 11.1972 7.19726C10.846 7.54845 10.3806 7.76216 9.88537 7.79962C9.39012 7.83709 8.89784 7.69583 8.49781 7.40147C8.27001 8.2407 8.31113 9.13023 8.61538 9.94487C8.91962 10.7595 9.47167 11.4582 10.1938 11.9427C10.916 12.4271 11.7719 12.6729 12.641 12.6455C13.5102 12.618 14.3489 12.3187 15.039 11.7896C15.7291 11.2606 16.236 10.5284 16.4882 9.69617C16.7404 8.86395 16.7253 7.97359 16.445 7.15041C16.1647 6.32723 15.6333 5.61268 14.9256 5.10733C14.2179 4.60198 13.3696 4.33128 12.5 4.33332Z" fill="#080D95"/>
</svg>
