<svg width="25" height="25" viewBox="0 0 25 25" fill="none" xmlns="http://www.w3.org/2000/svg">
<g clip-path="url(#clip0_25_60)">
<path d="M24.0918 1.20121L19.0137 0.0293366C18.4619 -0.0976165 17.8955 0.190469 17.6709 0.708048L15.3271 6.1768C15.1221 6.65531 15.2588 7.21684 15.6641 7.54399L18.623 9.96586C16.8652 13.711 13.7939 16.8262 9.9707 18.6182L7.54883 15.6592C7.2168 15.2539 6.66016 15.1172 6.18164 15.3223L0.712891 17.6661C0.19043 17.8955 -0.097656 18.462 0.0292971 19.0137L1.20117 24.0918C1.32324 24.6192 1.79199 25 2.34375 25C14.8486 25 25 14.8682 25 2.34379C25 1.79691 24.624 1.32328 24.0918 1.20121Z" fill="#080D95"/>
</g>
<defs>
<clipPath id="clip0_25_60">
<rect width="25" height="25" fill="white"/>
</clipPath>
</defs>
</svg>
