<svg width="68" height="73" viewBox="0 0 68 73" fill="none" xmlns="http://www.w3.org/2000/svg">
<path d="M34.0076 17.7837C24.3594 17.7837 16.5771 26.1401 16.5771 36.5C16.5771 46.8599 24.3594 55.2163 34.0076 55.2163C43.6558 55.2163 51.438 46.8599 51.438 36.5C51.438 26.1401 43.6558 17.7837 34.0076 17.7837ZM34.0076 48.668C27.7727 48.668 22.6755 43.2111 22.6755 36.5C22.6755 29.7889 27.7575 24.332 34.0076 24.332C40.2577 24.332 45.3397 29.7889 45.3397 36.5C45.3397 43.2111 40.2425 48.668 34.0076 48.668ZM56.2166 17.0181C56.2166 19.4452 54.3962 21.3836 52.151 21.3836C49.8907 21.3836 48.0854 19.4289 48.0854 17.0181C48.0854 14.6073 49.9059 12.6526 52.151 12.6526C54.3962 12.6526 56.2166 14.6073 56.2166 17.0181ZM67.7611 21.4488C67.5032 15.601 66.2592 10.421 62.2695 6.15324C58.2949 1.88547 53.4708 0.54976 48.0248 0.256555C42.4118 -0.0855182 25.5882 -0.0855182 19.9752 0.256555C14.5443 0.533471 9.72024 1.86918 5.73051 6.13695C1.74077 10.4047 0.511991 15.5847 0.238929 21.4325C-0.079643 27.4595 -0.079643 45.5242 0.238929 51.5512C0.496821 57.399 1.74077 62.579 5.73051 66.8468C9.72024 71.1145 14.5292 72.4502 19.9752 72.7434C25.5882 73.0855 42.4118 73.0855 48.0248 72.7434C53.4708 72.4665 58.2949 71.1308 62.2695 66.8468C66.2441 62.579 67.488 57.399 67.7611 51.5512C68.0796 45.5242 68.0796 27.4758 67.7611 21.4488ZM60.5098 58.018C59.3265 61.2107 57.0358 63.6704 54.0473 64.9572C49.5721 66.863 38.953 66.4232 34.0076 66.4232C29.0621 66.4232 18.4279 66.8468 13.9679 64.9572C10.9945 63.6867 8.70385 61.227 7.50541 58.018C5.73051 53.2127 6.1401 41.8103 6.1401 36.5C6.1401 31.1897 5.74568 19.771 7.50541 14.982C8.68868 11.7893 10.9794 9.32963 13.9679 8.04279C18.4431 6.13695 29.0621 6.57676 34.0076 6.57676C38.953 6.57676 49.5873 6.15324 54.0473 8.04279C57.0206 9.31334 59.3113 11.773 60.5098 14.982C62.2847 19.7873 61.8751 31.1897 61.8751 36.5C61.8751 41.8103 62.2847 53.229 60.5098 58.018Z" fill="#080D95"/>
</svg>
