<svg width="73" height="73" viewBox="0 0 73 73" fill="none" xmlns="http://www.w3.org/2000/svg">
<path d="M16.3403 73H1.2058V24.2616H16.3403V73ZM8.76489 17.6133C3.92538 17.6133 0 13.6047 0 8.76508C3.46391e-08 6.44044 0.923441 4.21101 2.56718 2.56723C4.21091 0.923461 6.4403 0 8.76489 0C11.0895 0 13.3189 0.923461 14.9626 2.56723C16.6063 4.21101 17.5298 6.44044 17.5298 8.76508C17.5298 13.6047 13.6028 17.6133 8.76489 17.6133ZM72.9837 73H57.8818V49.2745C57.8818 43.6201 57.7678 36.3688 50.0131 36.3688C42.1445 36.3688 40.9387 42.512 40.9387 48.8671V73H25.8205V24.2616H40.3358V30.91H40.5476C42.5681 27.0807 47.5038 23.0395 54.8673 23.0395C70.1843 23.0395 73 33.1261 73 46.2273V73H72.9837Z" fill="#080D95"/>
</svg>
